<svg width="20" height="22" viewBox="0 0 20 22" fill="none" xmlns="http://www.w3.org/2000/svg">
<path d="M14.49 14.5V12.75L12 15.25L14.49 17.75V16H20V14.5H14.49V14.5ZM17.51 18.75H12V20.25H17.51V22L20 19.5L17.51 17V18.75V18.75ZM7.5 4.5C8.6 4.5 9.5 3.6 9.5 2.5C9.5 1.4 8.6 0.5 7.5 0.5C6.4 0.5 5.5 1.4 5.5 2.5C5.5 3.6 6.4 4.5 7.5 4.5ZM3.75 7.9L1 22H3.1L4.85 14L7 16V22H9V14.45L6.95 12.4L7.55 9.4C8.85 11 10.8 12 13 12V10C11.15 10 9.55 9 8.65 7.55L7.7 5.95C7.35 5.35 6.7 5 6 5C5.75 5 5.5 5.05 5.25 5.15L0 7.3V12H2V8.65L3.75 7.9Z" fill="black"/>
</svg>
